<svg enable-background="new 0 0 2588 1281.5" viewBox="0 0 2588 1281.5" xmlns="http://www.w3.org/2000/svg" xmlns:xlink="http://www.w3.org/1999/xlink"><clipPath id="a"><path d="m0 0c0 79 17.7 113.9 65.5 171.5 68 82 173.5 78.6 255.5 190.5 55.6 75.9 30.5 256.8 100.2 322.2 140.1 131.6 277.2 68.7 381.8 185.8 97.9 109.6 59.7 307.3 176.2 411.3l629.5.2c116.7-103.9 78.4-301.8 176.4-411.5 104.6-117.1 240.6-37.5 396-203 72-76.7 30.4-229.1 86-305 82-111.9 187.5-108.5 255.5-190.5 47.7-57.6 65.4-92.5 65.4-171.5z"/></clipPath><clipPath id="b"><path d="m1013.7 981.8h47.3v44.6c0 13.1-10.6 23.7-23.7 23.7-13.1 0-23.7-10.6-23.7-23.7z"/></clipPath><clipPath id="c"><path d="m1090.5 1281.5c4.9-36.2 24.7-187.2 77.8-215.6 45.7-24.4 169.6-24.4 237.2 27.6 53.3 41 71.4 80.6 72.5 98.5 3.1 50.8 1.8 78 .8 89.3z"/></clipPath><clipPath id="d"><path d="m1256 1077.8c18.5 9.2 40.3 9.4 59 .5v-36.8h-59z"/></clipPath><clipPath id="e"><path d="m1534.5 1005.3c-3.8-.3-7.5-.4-11.3-.3v276.5h57.3v-266c-15.6-5.2-26.6-8.7-46-10.2z"/></clipPath><clipPath id="f"><path d="m1527.3 981.2h48.3v44.8c0 13.3-10.8 24.2-24.2 24.2-13.3 0-24.2-10.8-24.2-24.2z"/></clipPath><path d="m0 0c0 79 17.7 113.9 65.5 171.5 68 82 173.5 78.6 255.5 190.5 55.6 75.9 30.5 256.8 100.2 322.2 140.1 131.6 277.2 68.7 381.8 185.8 97.9 109.6 59.7 307.3 176.2 411.3l629.5.2c116.7-103.9 78.4-301.8 176.4-411.5 104.6-117.1 240.6-37.5 396-203 72-76.7 30.4-229.1 86-305 82-111.9 187.5-108.5 255.5-190.5 47.7-57.6 65.4-92.5 65.4-171.5z" fill="#404c5f"/><g clip-path="url(#a)"><g fill="#566479"><path d="m880.2 1277.6h-4v-677.1h1336v4h-1332z"/><path d="m998.6 602.5h4v675.1h-4z"/><path d="m1121 602.5h4v675.1h-4z"/><path d="m1243.4 602.5h4v675.1h-4z"/><path d="m1365.8 602.5h4v675.1h-4z"/><path d="m1488.2 602.5h4v675.1h-4z"/><path d="m1610.6 602.5h4v675.1h-4z"/><path d="m1733 602.5h4v675.1h-4z"/><path d="m1855.4 602.5h4v675.1h-4z"/><path d="m1977.8 602.5h4v675.1h-4z"/><path d="m2100.2 602.5h4v675.1h-4z"/><path d="m878.4 722.9h1333.8v4h-1333.8z"/><path d="m878.4 845.3h1333.8v4h-1333.8z"/><path d="m878.4 967.7h1333.8v4h-1333.8z"/><path d="m874.9 1090.1h1337.3v4h-1337.3z"/><path d="m874.9 1212.5h1337.3v4h-1337.3z"/><path d="m2593 482.1h-614.8v-485.6h4v481.6h610.8z"/><path d="m2100.6-3.5h4v483.6h-4z"/><path d="m2223-3.5h4v483.6h-4z"/><path d="m2345.4-3.5h4v483.6h-4z"/><path d="m2467.8-3.5h4v483.6h-4z"/><path d="m2590.2-9.5h4v489.6h-4z"/><path d="m1981.9 355.7h611.1v4h-611.1z"/><path d="m1981.9 233.3h611.1v4h-611.1z"/><path d="m1981.9 110.9h611.1v4h-611.1z"/><path d="m635.5 604.5h-614v-4h610v-603.5h4z"/><path d="m509.1-3h4v605.5h-4z"/><path d="m386.7-3h4v605.5h-4z"/><path d="m264.3-3h4v605.5h-4z"/><path d="m141.9-3h4v605.5h-4z"/><path d="m19.5-3h4v605.5h-4z"/><path d="m21.5 478.1h611.8v4h-611.8z"/><path d="m21.5 355.7h611.8v4h-611.8z"/><path d="m21.5 233.3h611.8v4h-611.8z"/><path d="m21.5 110.9h611.8v4h-611.8z"/></g><path d="m2351.4 361.7h-252.8v-252.8h252.8zm-244.8-8h236.8v-236.8h-236.8z" fill="#fddf87"/><path d="m1118.9 719h1033.7v8h-1033.7z" fill="#ef9b95"/><path d="m505.8 237.3v238.2h-170.8l-8 8h186.8v-254.2z" fill="#ef9b95"/><path d="m513.8 237.3h-517.8v-129.5h517.8zm-509.8-8h501.8v-113.5h-501.8z" fill="#92dda6"/></g><path d="m1264.3 1277.5h-.3c.1.1.2.1.3 0z" fill="#4c82ef" opacity=".7"/><path d="m1264 1277.5c-1.1-.8-3.3-14.4 40.5-195.2 49.3-203.7-97.4-305.1-97.4-305.1-5.9-5.3-12.1-10.1-18.7-14.4l-37.5 34.2c1.3 7.8 3.3 17 6.2 27.5 15.8 58.1 13.7 95.5-11.7 124.5-3.7 3.2-7.2 6.7-10.4 10.4-5.1 4.3-10.4 8.3-16 11.9-36.8 17.3-87.5-15.2-114.1 2.8-24.5 16.5-31.5 32.4-34.3 56.3l-3.6 1.1c-169 51.4-157.5 189.2-126.9 250h263.6z" fill="#4285f4"/><circle cx="1037.5" cy="1027.5" fill="#fff" r="33.8"/><path d="m1046 1059.7c-2 0-6.7.2-8.5.2-16.4 0-29.8-13.2-29.8-29.4s13.3-29.4 29.8-29.4v-7.9c-20.9 0-37.8 16.7-37.8 37.3s16.9 37.3 37.8 37.3c1.8 0-1.2 0 .8-.1v213.7h8z" fill="#2c66bf"/><path d="m1013.7 981.8h47.3v44.6c0 13.1-10.6 23.7-23.7 23.7-13.1 0-23.7-10.6-23.7-23.7z" fill="#c6daf8"/><g clip-path="url(#b)"><circle cx="1066.7" cy="978.8" fill="#a4c0f6" r="42.7"/></g><ellipse cx="1041.7" cy="963.8" fill="#c6daf8" rx="42.7" ry="42.7" transform="matrix(.1602 -.9871 .9871 .1602 -76.5715 1837.6611)"/><circle cx="1044.2" cy="958.3" fill="#012754" r="4.7"/><circle cx="1069.5" cy="939.3" fill="#012754" r="4.7"/><path d="m1055.1 951.9 6.5-6.5 12 12c1.8 1.8 1.8 4.7 0 6.5-1.8 1.8-4.7 1.8-6.5 0z" fill="#a4c0f6"/><path d="m1042.3 936c6.1-5.5 10-13.1 12.9-20.8 1.2-3.1 2.1-6.4 2.5-9.7.5-6.9-1.6-13.7-6-19.1-4.3-5.3-10.1-9.3-16.7-11.4-1.6-.6-3.3-.9-5-.7-2.4.6-4.4 2.4-5.2 4.7s-1.3 4.8-1.3 7.2l-1.1 14.4c-.1 1.3-.4 2.9-1.6 3.4-.8.2-1.7.1-2.5-.2-6.5-2-13.4-1.8-19.8.5-1.9.7-3.9 1.8-4.9 3.6s-.9 3.7-.8 5.6l.5 13.1c.1 1 0 1.9-.3 2.8-.6 1.1-1.5 1.9-2.6 2.5-2.1 1.2-4.3 2.3-6.5 3.1-1.8.6-3.6 1.3-5.3 2-4.8 2.7-7.8 7.7-7.8 13.2 0 5.4 2.5 10.6 6.7 14 .9.6 1.6 1.4 2.2 2.3 1 2.3-1.1 4.7-1.6 7.1s.8 5 2 7.3c1.2 2.5 2.8 4.8 4.8 6.8 1.9 1.5 4 2.7 6.2 3.6 6.8 3.2 13.3 6.9 19.6 11 1.9 1.2 4.2 2.6 6.3 1.8s2.8-3.2 2.5-5.3c-.5-2.1-1.5-4-2.8-5.7-2-3.1-3.9-6.4-4.3-10s.9-7.7 4.1-9.5c3-1.7 7.5-1.5 8.8-4.7 1-2.4-.5-5-2-7.2-.9-1.6-2.2-3-3.7-4-1.2-.7-4.2-.5-4.8-1.8-1.3-2.8 5.5-6.2 7.1-7.2 6.6-4.1 14.3-7.2 20.4-12.7z" fill="#80adf7"/><ellipse cx="1008" cy="978.1" fill="#c6daf8" rx="13.7" ry="13.7" transform="matrix(.1602 -.9871 .9871 .1602 -118.9141 1816.3933)"/><path d="m1007.2 1209c-2.2 0-4-1.8-4-4v-119.3c0-2.2 1.8-4 4-4s4 1.8 4 4v119.3c0 2.2-1.8 4-4 4z" fill="#fff"/><path d="m1074.2 1209c-2.2 0-4-1.8-4-4v-119.3c0-2.2 1.8-4 4-4s4 1.8 4 4v119.3c0 2.2-1.8 4-4 4z" fill="#fff"/><path d="m955 1193.2c-2.2 0-4 1.8-4 4v84.3h8v-84.3c0-2.2-1.8-4-4-4z" fill="#2c66bf"/><ellipse cx="1175.1" cy="786.4" fill="#4c82ef" rx="41.5" ry="24" transform="matrix(.7485 -.6631 .6631 .7485 -225.9252 977.0243)"/><ellipse cx="1175.6" cy="786.4" fill="#4c82ef" rx="41.5" ry="24" transform="matrix(.7485 -.6631 .6631 .7485 -225.7998 977.3517)"/><ellipse cx="1171.6" cy="780.4" fill="#2c66bf" rx="26.7" ry="15.5" transform="matrix(.7485 -.6631 .6631 .7485 -222.8288 973.1886)"/><ellipse cx="1162.5" cy="762.3" fill="#c6daf8" rx="32.1" ry="29.2" transform="matrix(.7485 -.6631 .6631 .7485 -213.1538 962.6151)"/><path d="m1154.1 753-21.9 18.3-15.7-45.9c-.9-2.7 0-5.7 2.3-7.4 2.9-2.2 7-1.6 9.2 1.4.3.4.5.7.7 1.1z" fill="#c6daf8"/><path d="m1090.5 1281.5c4.9-36.2 24.7-187.2 77.8-215.6 45.7-24.4 169.6-24.4 237.2 27.6 53.3 41 71.4 80.6 72.5 98.5 3.1 50.8 1.8 78 .8 89.3z" fill="#ef9b95"/><g clip-path="url(#c)"><path d="m1105.5 1151 209.5 61 172-49.5-100-138.8-260.5 7.8z" fill="#df382b"/><g fill="#b7251d"><path d="m1141 1072h258l-20-30.5-244 5.8z"/><path d="m1122 1116 324.5-12-20-18-304.5 2z"/><path d="m1112 1148 364.5-4-8-22-378.5 1.5z"/><ellipse cx="1285.5" cy="1078.5" rx="34" ry="10"/></g></g><path d="m1181.6 1177.3-70.7-21.2c-2.1-.6-3.3-2.9-2.7-5 .6-2.1 2.9-3.3 5-2.7l70.7 21.2z" fill="#b7251d"/><path d="m1256 1077.8c18.5 9.2 40.3 9.4 59 .5v-36.8h-59z" fill="#ef9b95"/><g clip-path="url(#d)"><circle cx="1256" cy="1037.5" fill="#ea7a72" r="45"/></g><path d="m1337.9 1017.2c0-4.8-3.4-9-8.1-10-5.7-24.2-29.9-39.2-54.1-33.6-16.9 3.9-30 17.2-33.7 34.1-5.2 2.1-7.7 8-5.6 13.2 1 2.5 3 4.5 5.5 5.6 5.1 24.3 28.9 40 53.2 34.9 17.3-3.6 31-17.1 34.8-34.4 4.7-.9 8-5 8-9.8z" fill="#ef9b95"/><ellipse cx="1267.6" cy="1027.6" fill="#90130e" rx="3.4" ry="3.9"/><ellipse cx="1301" cy="1027.6" fill="#90130e" rx="3.4" ry="3.9"/><path d="m1284.3 1042.3c-2.2 0-4-1.8-4-4v-14.7h8v14.7c0 2.2-1.8 4-4 4z" fill="#ea7a72"/><path d="m1342.2 997.9c-.8-.8-2.1-.7-2.8.1-1.4 1.5-3 2.8-4.6 4-6.7-20.9-26.2-35.1-48.2-35.2 5-15.3-3.4-31.8-18.8-36.8-1.6-.5-3.3-.9-4.9-1.1-1.3-.2-2.7-.3-4-.3-16.1 0-29.2 13.1-29.2 29.2 0 11.5 6.7 21.8 17.2 26.6-1.6 1.7-3.1 3.6-4.2 5.7-5.1 8.8-7.4 21.9 3.5 27.9 0 .7-4.2 8-4.1 8.7.5 2.7 1.3 5.3 2.4 7.8l6.6-13.2 11.8-23.4c3.5 3.9 7.5 7.3 12 10.1 10.1 6.2 22.1 8.8 33.9 7.3l10.3 32.9c5.9-6.2 9.8-14 11.4-22.4l-3.7-14.7c5.9-2.3 11.2-5.8 15.7-10.3.7-.9.6-2.2-.3-2.9.1 0 .1 0 0 0z" fill="#b7251d"/><path d="m1207.6 1244.5-51.5-7.9c-2.2-.3-3.7-2.4-3.4-4.6.3-2.2 2.4-3.7 4.6-3.4l51.6 7.9z" fill="#ea7a72"/><path d="m1366.7 1235.6h56.2v5h-56.2z" fill="#e9bdb8" transform="matrix(.9885 -.1514 .1514 .9885 -171.411 225.4953)"/><path d="m1481.5 901.2c-1.5.8-2.9 1.8-3.9 3.2-6.6 8.2-7.1 19.7-1.2 28.4-3.3 4.3-6.6 9.1-6.8 14.5-.3 5.7 2.8 11 5.8 16-8 6.2-10.5 17.4-9.7 27.5.4 5.4 1.8 11.2 5.7 14.9 2.2 1.9 4.8 3.4 7.6 4.3 15.4 5.8 32.4 5.9 47.9.4 4.7-1.7 9.4-4 12.7-7.9 2.8-3.3 4.3-7.6 5.8-11.7 2.5-7.1 5-14.5 4.3-21.9-.5-5.2-2.5-10-4.5-14.8-3.8-9.2-7.6-18.4-12.2-27.3-.3-.7-.8-1.4-1.3-1.9-.9-.7-2-1.1-3.1-1.3-9-2.5-15.3-11-24.2-13.9-2.3-.8-5-1.2-6.5-3.1-2.2-2.7-2.2-3.1-5.4-4.1-3.7-1.2-7.3-2.9-11-1.3z" fill="none"/><path d="m1544.5 1005.4c-103.6 0-158.3 88.5-188.9 169.5 7.7 33.8 24 97.9 115.4 42.1v64.5h262.6c30.8-96.6-20.5-276.1-189.1-276.1z" fill="#fddf87"/><path d="m1534.5 1005.3c-3.8-.3-7.5-.4-11.3-.3v276.5h57.3v-266c-15.6-5.2-26.6-8.7-46-10.2z" fill="#fff"/><g clip-path="url(#e)" fill="#fae08e"><path d="m1505.7 1060.1h112.8v7h-112.8z" transform="matrix(.9842 -.1773 .1773 .9842 -163.7967 293.7357)"/><path d="m1505.2 1079.1h112.8v7h-112.8z" transform="matrix(.9842 -.1773 .1773 .9842 -167.1757 293.9478)"/><path d="m1501.9 1102.4h112.8v7h-112.8z" transform="matrix(.9842 -.1773 .1773 .9842 -171.3447 293.7253)"/><path d="m1501.9 1126.6h112.8v7h-112.8z" transform="matrix(.9842 -.1773 .1773 .9842 -175.6391 294.1078)"/><path d="m1501.9 1149.5h112.8v7h-112.8z" transform="matrix(.9842 -.1773 .1773 .9842 -179.6925 294.4706)"/><path d="m1501.9 1174h112.8v7h-112.8z" transform="matrix(.9842 -.1773 .1773 .9842 -184.0358 294.8573)"/><path d="m1501.9 1203.4h112.8v7h-112.8z" transform="matrix(.9842 -.1773 .1773 .9842 -189.2636 295.3241)"/><path d="m1501.9 1228.8h112.8v7h-112.8z" transform="matrix(.9842 -.1773 .1773 .9842 -193.7568 295.7258)"/><path d="m1501.9 1251.5h112.8v7h-112.8z" transform="matrix(.9842 -.1773 .1773 .9842 -197.779 296.0837)"/></g><path d="m1641.7 1193.2c-2.2 0-4 1.8-4 4v84.3h8v-84.3c0-2.2-1.8-4-4-4z" fill="#fabb05"/><path d="m1442.6 1108.6c-5.6-.1-11.1-1.9-15.7-5-6.5-4.1-12.4-8.4-14-15.5-1.2-5.6.6-11.9 5.5-19.3 1.2-1.9 3.7-2.4 5.5-1.2 1.9 1.2 2.4 3.7 1.2 5.5 0 0 0 .1-.1.1-3.6 5.5-5.1 9.4-4.4 12.8.9 4.1 5.3 7.5 10.4 10.9 8.5 5.6 22.6 3.9 34.2-11.2 1.3-1.8 3.8-2.2 5.6-1 1.8 1.3 2.2 3.8 1 5.6-.1.1-.1.2-.2.3-6.9 9-16.9 18-29 18z" fill="#fabb05"/><path d="m1443.3 1164.1c-2.1-.7-3.2-3-2.5-5.1l24.4-73 7.6 2.5-24.4 73c-.7 2.1-3 3.3-5.1 2.6z" fill="#fabb05"/><path d="m1527.3 981.2h48.3v44.8c0 13.3-10.8 24.2-24.2 24.2-13.3 0-24.2-10.8-24.2-24.2z" fill="#fabb05"/><g clip-path="url(#f)"><circle cx="1546.3" cy="957.2" fill="#f3be31" r="45.7"/><circle cx="1527.3" cy="970" fill="#eda606" r="45.7"/></g><circle cx="1546.3" cy="957.2" fill="#fabb05" r="45.7"/><path d="m1566.6 934.2c-1.1 6.4-2.2 13-.9 19.3s5.4 12.6 11.6 14.4c-9.2 15.4-6.2 34.9-3 52.5.6 3.3 1.6 7.1 4.7 8.3 4 1.5 7.8-2.3 10.6-5.4 5.5-6 12.2-10.9 16.6-17.8s5.8-16.6.4-22.6c7.2-3.3 14-8.7 16.4-16.3s-.9-17.2-8.4-19.8c7.6-5.9 15.9-13.1 16.4-22.7.5-9.8-7.6-18-15.9-23.3-5-3.2-10.7-5.9-16.5-5 4.5-7.3 1.9-17.5-4.4-23.3s-15.3-7.9-23.9-7.5c-12.4.5-25.5 6.6-30.4 18-4.2-7.1-12-11.3-20.2-11-11.9.6-21.4 10.5-27.2 20.9s-9.3 24.1-2.7 34.1c3.4 5.1 9.1 5.6 14.6 7.2 20.3 5.7 41.9 5.7 62.2 0z" fill="#e09108"/><circle cx="1583.9" cy="969.9" fill="#f3be31" r="12.7"/><path d="m1502.8 987.3c-11.3 0-20.4-9.1-20.4-20.4s9.1-20.4 20.4-20.4 20.4 9.1 20.4 20.4c-.1 11.3-9.2 20.4-20.4 20.4zm0-34.8c-8 0-14.4 6.5-14.4 14.4 0 8 6.5 14.4 14.4 14.4 8 0 14.4-6.5 14.4-14.4s-6.5-14.4-14.4-14.4z" fill="#fff"/><path d="m1518.1 960.2h8.8v17.2c0 2.4-2 4.4-4.4 4.4-2.4 0-4.4-2-4.4-4.4z" fill="#e09108"/><path d="m1544.7 987.3c-11.3 0-20.4-9.1-20.4-20.4s9.1-20.4 20.4-20.4 20.4 9.1 20.4 20.4c0 11.3-9.1 20.4-20.4 20.4zm0-34.8c-8 0-14.4 6.5-14.4 14.4 0 8 6.5 14.4 14.4 14.4 8 0 14.4-6.5 14.4-14.4.1-7.9-6.4-14.4-14.4-14.4z" fill="#fff"/><path d="m1430.5 1053.7c0 3 .6 6 .1 8.9-.4 1.6-.7 3.2-.9 4.8-.1 3.6 2.4 6.7 4.8 9.4.9 1.2 2.1 2.3 3.5 3 1.6.5 3.3.7 5 .5 4.4-.3 9.1-.7 12.9-3 6.3-3.9 8.5-11.9 10-19.1.8-4.2 1.7-8.5 1.1-12.7-.1-2.1-1-4-2.3-5.6-1.2-1-2.6-1.8-4-2.6-1.8-1.2-3.3-2.9-5.1-4-2.5-1.5-5.5-1.9-8.4-2.2-3.1-.5-6.3-.5-9.5-.2-1.4.2-3.5.6-4.6 1.6-1.6 1.4-.9.9-.9 3-.1 6.1-1.7 12.1-1.7 18.2z" fill="#fabb05"/><ellipse cx="1508.4" cy="967.5" fill="#e09108" rx="3.1" ry="4.2"/><ellipse cx="1541.3" cy="969.9" fill="#e09108" rx="3.1" ry="4.2"/><path d="m1430.9 1002.7 16.6 74.1c.9 3.8 4.3 6.5 8.2 6.2l35.8-2c4.4-.2 7.8-4 7.6-8.4 0-.4-.1-.7-.1-1.1l-15.7-83.8c-.8-4.3-5-7.2-9.3-6.4-.3.1-.6.1-1 .2l-36.8 11.7c-3.9 1.3-6.2 5.4-5.3 9.5z" fill="#fff"/><path d="m1435.3 1047.3c-1 3.4-1.3 7-2.8 10.2-.9 1.8-2.1 3.4-2.7 5.2-1.3 4.1.5 8.5 2.3 12.4 1.2 3.9 4.6 6.6 8.6 6.8 5.2 1.1 10.7 2.3 15.8.9 8.5-2.3 13.7-10.8 17.8-18.6 2.4-4.5 4.7-9.2 5.5-14.2.5-2.4.2-4.9-.8-7.2-.9-1.7-1.6-6.3-2.8-7.8-1.8-2-3.3-4.3-4.3-6.8-1.3-3.3-3.7-7.7-6.9-9-3.5-1.4-7.1-2.9-10.8-3.3-1.7-.2-4.2-.5-5.8.3-2.3 1.1-4.4 8.4-5.2 10.8-2.1 7-5.9 13.3-7.9 20.3z" fill="#fabb05"/><path d="m1490.6 1270c1.3-14.9-2-29.7-5.3-43.9s-6.3-27.7-5.2-41.4c.9-10.5 4.3-21 7.7-31.2 4.3-13 8.7-26.5 8.1-40.6-.7-14.4-6.5-28-16.3-38.5l-5.1 4.8c8.7 9.3 13.8 21.3 14.4 34 .5 12.9-3.5 25.1-7.8 38.1-3.5 10.6-7.1 21.5-8 32.8-1.2 14.8 2.1 29.4 5.3 43.6 3.3 14.3 6.4 27.9 5.1 41.7-.4 4.1-1.1 8.1-2.2 12h7.2c1.1-3.8 1.7-7.6 2.1-11.4z" fill="#fff"/><path d="m1177.5 1137.8h216.7v143.7h-216.7z" fill="#fff"/><path d="m1177.5 1271.5h216.7v10h-216.7z" fill="#ebf3ff"/><circle cx="1284.3" cy="1210.2" fill="#ebf3ff" r="17"/><path d="m1186.5 727h-60.6c-2.2 0-4-1.8-4-4s1.8-4 4-4h60.6c2.2 0 4 1.8 4 4s-1.8 4-4 4z" fill="#ef9b95"/><circle cx="1122.9" cy="723" fill="#ef9b95" opacity=".7" r="21.1"/><path d="m1735 660.5c-32 0-58-26-58-58s26-58 58-58 58 26 58 58c0 32-26 58-58 58zm0-108c-27.6 0-50 22.4-50 50s22.4 50 50 50 50-22.4 50-50c0-27.6-22.4-50-50-50z" fill="#92dda6"/><g fill="#9fc1f9"><path d="m389.7 400.2c-23.3 0-42.2-18.9-42.2-42.2s18.9-42.2 42.2-42.2 42.2 18.9 42.2 42.2-18.9 42.2-42.2 42.2zm0-76.4c-18.9 0-34.2 15.3-34.2 34.2s15.3 34.2 34.2 34.2 34.2-15.3 34.2-34.2c0-18.9-15.3-34.2-34.2-34.2z"/><path d="m756 579.6h3v45.8h-3z"/><path d="m734.6 601h45.8v3h-45.8z"/><path d="m568.6 274.7h3v45.8h-3z"/><path d="m547.2 296.1h45.8v3h-45.8z"/><path d="m1855.8 455.6h3v45.8h-3z"/><path d="m1834.5 477h45.8v3h-45.8z"/></g><ellipse cx="1156.4" cy="767.8" fill="#c6daf8" rx="11.1" ry="15.1"/><path d="m1155.7 776.9-3.9-.9c4.3-19 2.1-26.4.5-26.8-1.5-.4-7.4 4.5-13.3 23.9l-3.8-1.2c5.5-18.2 12.3-28.1 18.2-26.6s6.5 13 2.3 31.6z" fill="#9fc1f9"/><path d="m1165.4 773.3c-4.3 0-8.2-7.1-11.8-21.7l3.9-1c3.7 14.9 7.1 18.5 8 18.6 1.7-.7 4.4-12.4 0-34.2l3.9-.8c4.8 24 2.1 37.8-3.1 38.9-.3.2-.6.2-.9.2z" fill="#9fc1f9"/><path d="m1173.7 772.4c-3.3 0-5.2-4.4-5.8-13.1l4-.3c.4 5.7 1.3 8.2 1.9 9.1 1.3-1.5 4.4-8.6 5.3-28.5l4 .2c-.5 9.8-2.3 32.5-9.4 32.6z" fill="#9fc1f9"/><path d="m1181.9 770.3c-.9 0-1.8-.3-2.6-.9-2.2-1.7-3.1-5.7-2.4-10.5l4 .5c-.6 4 .2 6.3.9 6.8.1.1.1.1.3 0 1.2-.5 3.9-4 5.2-13.9l4 .5c-1.2 9.5-4 15.5-7.6 17-.6.4-1.2.5-1.8.5z" fill="#9fc1f9"/></svg>